<?xml version="1.0" encoding="utf-8"?>
<!-- Generator: Adobe Illustrator 24.1.2, SVG Export Plug-In . SVG Version: 6.00 Build 0)  -->
<svg version="1.1" id="Layer_1" xmlns="http://www.w3.org/2000/svg" xmlns:xlink="http://www.w3.org/1999/xlink" x="0px" y="0px"
	 viewBox="0 0 400.6 405" style="enable-background:new 0 0 400.6 405;" xml:space="preserve">
<style type="text/css">
	.st0{fill:#FBFCFC;}
	.st1{fill:#44B2CE;}
	.st2{fill:#1AA7CB;}
</style>
<g>
	<path class="st0" d="M0,202.5C0,135.7,0.1,69,0,2.2C0,0.4,0.4,0,2.2,0c132,0,264.1,0,396.1,0c1.8,0,2.2,0.4,2.2,2.2
		c0,133.6,0,267.1,0,400.7c0,1.8-0.4,2.2-2.2,2.2c-132,0-264.1,0-396.1,0c-1.8,0-2.2-0.4-2.2-2.2C0.1,336.1,0,269.3,0,202.5z
		 M391.7,206.6c0-2.1,0.1-4.1,0.1-6.2c0.3-7.2-0.1-14.4-0.8-21.6c-1.5-15.6-5.2-30.7-10.7-45.4c-10.9-28.8-28-53.6-51.4-74.2
		c-19.2-17-41-29.6-65.5-37.8c-23.5-7.8-47.6-11.1-72.4-9.6c-10.4,0.6-20.7,1.9-30.8,4.2c-37.2,8.4-69,26.1-95.5,53.1
		c-18.9,19.3-32.8,41.6-42,66.9c-7.5,20.7-10.9,42.1-10.9,64.1c0,0.9-0.2,1.9,0.3,2.8c-0.1,6.8,0.5,13.5,1.5,20.3
		c1.4,10.2,3.6,20.2,6.8,30.1c10.7,33.5,29.4,62,56.4,85.1c31.8,27.2,68.9,42.5,110.9,45.7c14.6,1.1,29.2,0.6,43.7-1.7
		c24-3.7,46.5-11.6,67.4-23.8c17.3-10.1,32.5-22.5,45.6-37.4c5.8-6.6,11.4-13.5,16.4-20.8c10.8-15.8,18.7-33.1,24-51.4
		c3.7-12.7,5.8-25.7,6.6-38.9C392,208.9,391.7,207.7,391.7,206.6z"/>
	<path class="st1" d="M12.1,202.8c-0.5-0.9-0.3-1.9-0.3-2.8c0-21.9,3.3-43.3,10.9-64.1c9.1-25.2,23.1-47.5,42-66.9
		c26.4-27,58.3-44.7,95.5-53.1c10.1-2.3,20.4-3.6,30.8-4.2c24.8-1.5,48.9,1.8,72.4,9.6c24.5,8.2,46.3,20.8,65.5,37.8
		c23.3,20.6,40.4,45.3,51.4,74.2c5.6,14.7,9.2,29.8,10.7,45.4c0.7,7.2,1.1,14.4,0.8,21.6c-6.5,0-12.9,0-19.4,0
		c-0.8,0-1.8,0.4-2.4-0.7c-0.3-0.6-0.7-0.8-1.4-0.6c-0.7,0.2-0.6,0.9-0.6,1.4c0,2.5-0.1,5.1,0,7.6c0,1.3-0.4,1.9-1.8,1.8
		c-1.3,0-1.6-0.6-1.6-1.7c0-3.3,0-6.7,0-10c0-0.6,0-1.2,0.7-1.6c1.7-1.1,1.6-3.5,0.1-4.9c-1.1-1.1-2.6-2.2-2.3-4.2
		c0.1-0.9,0-1.9,0-2.8c0-0.8-0.2-1.5-1.2-1.4c-1.2,0.1-2.5-0.5-3.5,0.4c-0.4,0.3-0.2,0.9,0.2,1.3c1.6,2,1.5,4.7,2.4,7
		c0.5,1.4,0.1,3.1,0,4.7c-0.6-0.1-1.3,0-1.4-0.9c-0.2-2.7-2.2-5.1-1.7-8c0.1-0.5-0.1-1-0.7-1c-1.2-0.1-1-1-1.2-1.7
		c-0.1-0.7,0-1.2-0.9-1.7c-2.1-1.3-3.6-3.5-5.3-5.2c-2.1-2.1-4.1-4.3-6.7-5.7c-1.1-0.6-0.3-1.8-1.3-2.3c-2.7-1.2-5.7-2-8.4-3.1
		c-2.5-0.9-5.5-2.2-8.7-1.9c-3,0.3-6.1,0-9.2,0.1c-1.1,0-2.1,0.4-3.2,0.9c-2,0.9-4.3,1.3-6.4,2.1c-2,0.8-4.2,1.8-6.4,2.2
		c-0.8-0.3-2.1-1-2.2,0c-0.1,1.3-3,1.6-1.2,3.4c-1,2-3.9,2.3-4.4,4.7c-3.4,0.6-3.1,4.1-4.8,6.1c-1.9,2.2-3,5.2-4.4,7.8
		c-0.9-0.3-2-1.2-2.5,0.4c-0.6,2,0.1,3.5,1.8,3.8c-0.1,1.1,0.7,2.6-0.6,3.2c-1.3,0.5-1.1,1.4-1.1,2.2c0,2.5,0,5,0,7.5
		c0,0.6-0.3,1.6,0.7,1.7c1.4,0.2,1,1.2,0.9,2c-1.4-0.2-1.9,0.4-1.8,1.8c0.1,0.6,0.1,1.3-0.8,1.5c-0.7,0.1-1.5,0-2.1-0.5
		c-0.8-0.7-0.9-5.7,0-5.9c1.6-0.4,1.4-1.5,1.4-2.6c0-1.8,0-3.6,0-5.5c0-5.5,0-5.5-5.5-5.5c-3.2,0-3.2,0-3.2,3.2
		c0,11.5,0,22.9,0,34.4c0,1,0.5,2.4-1.4,2.3c0-0.4-0.1-0.8-0.1-1.2c0-28.1,0-56.3,0-84.4c0-0.8,0.4-1.7-0.3-2.3
		c-2.1-1.8-3.7-3.9-7.1-3.5c-3.5,0.4-7.1,0.1-10.7,0.1c-3,0-3.4,0.4-3.7,3.4c-0.1,0.9-0.1,1.7-0.1,2.6c0,10.8,0,21.6,0,32.3
		c0,19.3,0,38.5,0,57.8c-1.6,0.2-1.9-0.6-1.9-2c0.1-4.6,0-9.2,0-13.8c0-0.7,0.3-1.7-0.3-2c-1.5-0.8-1.1-2-1.1-3.1
		c0-6.3,0-12.5,0-18.8c0-3.8,0-7.6,0-11.4c0-0.5,0.3-1.5-0.6-1.5c-0.6,0-0.7,0.7-0.8,1.3c-0.6,2-0.4,4.1-0.5,6.1
		c-0.1,2.4,0.7,4.9-0.3,7.1c-1.2,2.7-1.1,5.4-1.1,8.1c0,4,0,7.9,0,11.9l0,0c-3.4,0-3.4,0-3.4,3.3c0,2.5,0,5.1,0,7.6
		c0,1-0.3,1.9,1,2.7c0.9,0.6,0.8,2,0.1,2.7c-0.7,0.7-1.9,0.7-2.8-0.1c-0.4-0.4-0.1-1.5-1-1.3c-1,0.2-0.4,1.2-0.7,1.8
		c-1.3,0-2.3-0.4-1.6-1.9c0.3-0.6,0.1-1-0.4-1.2c-1.8-0.8-1.2-2.3-1.3-3.6c2.5-0.3,1-2.2,1.3-3.3c0.2-0.6,0.4-1.7-0.6-1.7
		c-1.2-0.1-0.6,1.2-0.9,1.8c-1.4,0.1-2-0.6-1.9-2c0.1-1.4,0.5-3.3-0.2-4.1c-1.7-1.9-1-3.9-1.2-5.9c2.4-0.2,1.1-1.9,1.4-3
		c0.2-1-0.1-1.9-1.5-1.7c-1.5,0.1-1.8-0.7-1.8-2c0-5.6-0.2-11.3-0.3-16.9c0-0.7,0.1-1.8-0.5-2c-1.9-0.5-1.7-2.1-2-3.4
		c-0.2-0.8-0.1-1.6-0.5-2.3c-1.6-2.6-3.7-4.9-5.4-7.4c-0.8-1.2-1.6-3.2-3.8-3.2c-0.1,0-0.2-0.2-0.3-0.4c1.8-0.6,1-2.1,0.9-3.1
		c-0.2-1.1-1.4-0.7-2.2-0.6c-0.7,0-1.4,0.3-2.1,0.5c-0.8-1-2.7,0.1-3.2-1.3c-0.8-2.4-4.4-1.4-4.8-4.1c0,0-0.3-0.1-0.5-0.1
		c-5.5,0.5-10.7-1.8-16.2-1.8c-4.2,0-7.9,2.1-12.1,1.7c-0.2,0-0.7,0.2-0.8,0.4c-0.1,1.5-1.3,1.3-2.3,1.4c-0.6,0-0.9,0.4-1.4,0.6
		c-1.2,0.6-1.3,2.7-2.8,2.4c-2.4-0.4-3.5,0.9-5,2.5c-1.6,1.7-2.9,3.8-5.2,4.9c-0.8-0.5-1.9-0.8-2.7-0.5c-1.3,0.5-2.5,1.2-2.6,2.8
		c-0.1,1.1,0,2.1,1.5,2c0,2.2-2,3.9-1.8,6.3c0,0.6-1.7,0.1-1.5,1.3c0.2,1.6-0.8,2.9-1.4,4.2c-1.3,0.1-2.2-0.1-2.1-1.8
		c0.1-1.6-1.2-2.8-2.1-3.3c-2.1-1.1-1.4-1.7,0-2.6c0.5-0.3,1-0.7,1.6-1.1c1-0.6,0.6-1.6,0.5-2.4c-0.1-1-1-0.9-1.7-0.8
		c-1.2,0.1-2.7-0.7-3.3,1.4c-0.2,0.7-1.5,1.2-2.3,1.8c-1.1,0.9-2.7,0-2.8-1.5c-0.1-1-0.1-1.8-1.4-1.6c-0.2-1.1,0.5-1.9,0.7-2.9
		c0.6-2.7,2.6-4.6,3.7-7c0.5-1.1-0.3-2.7,0.8-3.3c2.2-1.2,2.3-3.5,2.7-5.2c0.7-2.9,2.4-5.3,3.3-8c0.5-1.7,2.2-2.6,2.3-4.4
		c0.1-1.4,0.5-2.7,1.2-4c1.1-2,0.2-3.2-2.1-3.2c-4,0-7.9,0-11.9,0c-0.7,0-1.8-0.3-2,0.4c-0.4,1.6-1.6,1.3-2.7,1.3
		c-0.8,0-1.6,0.1-2,0.7c-1.5,1.9-4,2.9-4.5,5.7c-0.2,1.1-0.9,3.1-1.5,3.4c-2.4,1-1.4,2.9-1.7,4.4c-0.2,0.8,0,1.7-0.4,2.3
		c-1.4,1.7-2.6,3.3-3.2,5.7c-0.3,1.2-0.6,3.5-1.5,3.9c-2.1,1-1.4,2.6-1.6,3.9c-0.2,1.2-0.4,2.2-1.1,3.3c-0.8,1.3-0.5,3.1-2.7,3.4
		c-0.2,0-0.4,0.5-0.5,0.8c-0.4,2.2-0.3,4.3-2.1,6.4c-1,1.3-2.1,3.8-1.8,6.1c0.3,2.6-2.2,3.9-2.6,6.2c-0.1,0.7-0.3,2-0.9,2.6
		c-1.1,1.2-2.3,2.1-1.5,4c0,0-0.2,0.3-0.4,0.3c-1.6,0.1-1.3,1.3-1.3,2.3c0,0.7-0.2,1.3-1,1.5c-0.7,0.2-1.2-0.2-1.7-0.7
		c-0.7-0.8-0.9-1.8-0.9-2.9c0-0.5,0.1-1.1-0.4-1.6c-1.2-1.1-2.9-4.8-3-6.5c-0.1-1.2-0.4-2.1-1.4-3.1c-1-0.9-1.7-2.5-1.9-3.8
		c-0.2-1.6-0.5-3.2-1.2-4.7c1.8-0.5,0.9-1.9,1-2.9c0.1-1-0.9-0.9-1.6-0.8c-1.3,0.3-2-0.1-1.7-1.5c0.7-0.1,1.8,0.3,1.8-0.9
		c0-1.4-1.2-0.9-1.9-1c-0.5-0.1-1.3,0.1-1.3-0.7c0.1-2.7-2.3-4.3-3-6.7c-0.4-1.7-1.8-2.9-2.2-4.4c-0.4-1.4-0.6-3-1.2-4.4
		c1.7-0.6,1.2-2.1,0.7-2.9c-0.6-1-1.5-0.1-2.1,0.4c-1-0.3-0.9-1.1-1-1.9c0-0.8,0.2-1.6-0.4-2.3c-1.3-1.5-1.2-3.3-1.2-5.1
		c0.6-3.7,0.5-3.9-2.8-3c-0.9-1.1-0.6-2.4-0.6-3.6c0-0.5,0.1-1,0-1.4c-0.2-1,0.7-2.7-0.7-2.8c-0.9-0.1-2.2,1.1-2.2,2.6
		c-1.3,0-2.5-0.2-3.8-0.1c-1.4,0.1-2-0.4-2-1.8c0.7-0.3,2.2,0.4,2.1-0.7c-0.1-1.1-1.5-0.7-2.4-0.8c-0.8,0-1.5,0.3-2.1,0.9
		c-1.7,0.8-3.5,0.9-5.2,0.5c-2.1-0.5-4.1,0.4-6.1,0.1c-0.6-0.1-1.2,0-1.3,0.7c-0.1,1.6-0.6,3.5,0.4,4.9c1.6,2.3,0.8,5.4,3,7.5
		c1.3,1.2,1,4.2,2.1,4.9c1.5,1.1,1.3,2.1,1.3,3.3c-3.1,0-4.5,1.3-3.1,2.7c1.4,1.5,1.1,2.9,1.2,4.4c0,0.6,0,1.3,0.9,1.4
		c1.1,0,1-0.8,1-1.5c0-1.6,0-3.1,0.5-4.6c0.9,0.6,2.6,1.1,2.6,1.7c0,2.2,1.7,3.9,1.6,5.8c-0.1,2.6,1.8,4.4,2.6,6.4
		c1.2,2.8,3.1,5.3,3.4,8.5c-0.5,1.9-1.5,3.9,0.6,5.6c0.5,0.4,0.4,1.4-0.1,1.4c-2.2-0.3-3.4,1.8-5.6,1.8c-13.8-0.1-27.6,0-41.3-0.1
		C12.7,199.8,11.8,200.5,12.1,202.8z M309.4,161.8c-1.4,0-2.7,0-4.1,0c-1.1,0-1.7,0.8-1,1.5c1.1,1,2.7,0.4,4.1,0.4
		C309.7,163.6,309.3,162.6,309.4,161.8c2.1,0,4.2,0,6.3,0c-0.2,1.4,0.4,2,1.9,1.9c3.3-0.1,6.6,0,9.9,0c0.7,0,1.8,0.2,1.7-1
		c-0.1-1-1-0.8-1.7-0.8c-3.9,0-7.9,0-11.8,0c-0.1-0.5,0-1.3-0.7-1.3c-1.7-0.1-3.3-0.1-5,0C309.3,160.6,309.4,161.3,309.4,161.8z
		 M233.3,224.8C233.3,224.8,233.3,224.8,233.3,224.8c0,3.2,0,6.3,0,9.5c0,0.7-0.6,2.1,0.8,2.1c1.1,0,0.6-1.3,0.7-2
		c0.1-1.2,0-2.4,0-3.6c0-5.1,0-10.3,0-15.4c0-0.8,0.2-1.9-0.9-1.9c-1,0-0.5,1.1-0.6,1.8C233.2,218.5,233.3,221.6,233.3,224.8z
		 M84.9,172.7c0-2.9-0.3-3.1-3.8-2.7c-0.6,0.1-1.4,0-1.4,0.9c0,0.8-0.5,1.8,0.6,2.3c0.4,0.2,1.1,0.1,1.2,0.7
		c0.3,1.7,1.5,1.5,2.6,1.3C85.5,174.8,84.6,173.4,84.9,172.7z M96.5,202.6c0-0.4,0-0.8,0-1.1c0-0.7,0.2-1.5-0.9-1.6
		c-1.1,0-1,0.8-1,1.5c0,0.6,0.2,1.3-0.5,1.7c-0.7,0.3-1.1,0.7-0.8,1.5c0.3,0.8,1.1,0.5,1.7,0.6C97.2,205.3,96.3,203.6,96.5,202.6z
		 M93.1,199.2C93.1,199.2,93.1,199.2,93.1,199.2c0-0.6,0-1.3-0.1-1.9c-0.1-0.7-0.7-0.8-1.3-0.8c-0.7,0-1.5-0.3-1.9,0.5
		c-0.2,0.4-0.2,0.9,0.2,1.1c1.3,0.5,1.1,1.5,1.2,2.5c0,0.6,0.3,1.1,1,1c0.7,0,0.9-0.5,0.9-1.1C93.1,200.1,93.1,199.7,93.1,199.2z"/>
	<path class="st2" d="M240,223.2c0-4,0-7.9,0-11.9c0-2.7-0.1-5.4,1.1-8.1c1-2.2,0.3-4.7,0.3-7.1c0.1-2.1-0.1-4.1,0.5-6.1
		c0.2-0.5,0.2-1.3,0.8-1.3c1,0,0.6,0.9,0.6,1.5c0,3.8,0,7.6,0,11.4c0,6.3,0,12.5,0,18.8c0,1.1-0.4,2.3,1.1,3.1
		c0.6,0.3,0.3,1.3,0.3,2c0,4.6,0,9.2,0,13.8c0,1.4,0.3,2.2,1.9,2c0.6,0.6,0.7,1.6,1.6,2c-0.1,1,0.5,1.3,1.5,1.3c5.3,0,10.6,0,15.9,0
		c1.2,0,1.6-0.4,1.5-1.6c1.7-1.9,1.4-4.3,1.5-6.6c1.9,0.1,1.4-1.3,1.4-2.3c0-11.5,0-22.9,0-34.4c0-3.2,0-3.2,3.2-3.2
		c5.5,0,5.5,0,5.5,5.5c0,1.8,0,3.6,0,5.5c0,1.1,0.3,2.1-1.4,2.6c-0.9,0.2-0.8,5.3,0,5.9c0.6,0.5,1.3,0.6,2.1,0.5
		c0.9-0.2,0.8-0.9,0.8-1.5c-0.1-1.3,0.4-1.9,1.8-1.8c0.4,2,0,4.1,0.7,6.1c-0.4,0.7-0.6,1.5-0.5,2.3c0.1,2,0.6,3.9,1.1,5.8
		c0.7,2.7,2,2.5,3.8,2.4c0.6,0,1.3,0,1.9,0l0,0c0,1,0,2,0,3.1c0,1.2,0,2.1,1.7,1.3c1.2-0.6,1.7,0.2,1.6,1.4c0,0.7-0.5,0.8-1.1,0.9
		c-0.7,0.1-2-0.4-2,0.7c0,1.3,1.4,0.6,2.1,0.8c0.5,0.1,0.8,0.3,1.1,0.8c0.9,2.1,2.6,2.9,4.9,2.6c0,2.2,1.9,2.8,3.5,3.2
		c1.1,0.3,2,0.3,1.9,1.7c-0.1,0.8,0,1.7,1.2,1.6c1.2-0.1,2.5,0.5,3.4-0.6c0.8-1,0.1-2.4-1.1-2.7c-0.7-0.1-1.9,0.5-1.9-0.8
		c0-1,1.2-0.4,1.8-0.8c0.2-0.1,0.4-0.3,0.5-0.5c3.2,0.3,6.1,2.1,9.4,2c3.8-0.1,7.6-0.1,11.3,0c2.5,0,4.5-2,7-1.6
		c0.2,0,0.4-0.4,0.7-0.6c1.4-1.5,3.5-2.1,5.2-2.3c1.6-0.2,2.5-0.2,2.8-2c0.2-1,1.2-1.5,2.4-1.5c1,0,0.8,0.8,0.8,1.4
		c-0.2,1.3,0.1,2.2,1.7,2c0.2,0.9,0.5,1.9,0.7,2.8c-1.7,0.7-3.4,1.3-4.1,3.3c-0.3,0.8-1.4,0.7-1.5,0.1c-0.5-2-2-1.4-3.3-1.5
		c-0.6,0-1.4-0.2-1.7,0.5c-0.4,0.9,0.6,1.1,0.9,1.6c0.7,1.3,1.7,1.2,2.8,1.2c2.6,0,5.2,0,7.7,0c0.9,0,1.6,0,2.1,1.1
		c0.6,1.3,2.5,1.2,3.2-0.2c0.4-0.7,0.8-0.8,1.5-0.8c0,0.2,0,0.3,0,0.5c-0.1,1.6,1,1.4,2.1,1.4c0.7,0,1.4-0.2,1.2-1
		c-0.2-1.3-1.3-0.7-2.1-0.9c-0.4-0.1-0.8,0-1.2,0c0-1.1,0-2.2,0-3.3c3.8,0,7.6,0,11.4-0.1c2,0,3.2-1.8,1.9-2.9
		c-1.7-1.5-1.4-3.2-1.7-4.9c1.2-3.9-1.6-7.4-1.4-11.2c0-0.2-0.3-0.7-0.5-0.7c-1.8-0.3-1.4-1.6-1.4-2.7c0-1.3,0-2.7,0-4
		c0-1.1-0.4-1.6-1.6-1.4l0,0c0-1.6,0-3.3,0.1-4.9c0.1-1.5-0.5-2-1.9-1.9c0-4.4-0.1-8.8-0.1-13.2c0-1.6,0.5-3.3,0-4.7
		c-0.9-2.3-0.8-5-2.4-7c-0.3-0.4-0.5-1-0.2-1.3c1-0.9,2.3-0.3,3.5-0.4c1-0.1,1.2,0.6,1.2,1.4c0,1,0.1,1.9,0,2.8
		c-0.3,2,1.2,3.1,2.3,4.2c1.4,1.4,1.6,3.7-0.1,4.9c-0.7,0.4-0.7,1-0.7,1.6c0,3.3,0,6.7,0,10c0,1.2,0.3,1.7,1.6,1.7
		c1.4,0,1.8-0.5,1.8-1.8c-0.1-2.5,0-5.1,0-7.6c0-0.5-0.1-1.2,0.6-1.4c0.6-0.2,1.1,0,1.4,0.6c0.5,1.1,1.5,0.7,2.4,0.7
		c6.5,0,12.9,0,19.4,0c0,2.1-0.1,4.1-0.1,6.2c-0.7,1.1-0.3,2.3-0.3,3.4c-0.8,13.2-2.9,26.2-6.6,38.9c-5.3,18.3-13.2,35.5-24,51.4
		c-5,7.3-10.5,14.1-16.4,20.8c-13.1,14.9-28.4,27.4-45.6,37.4c-20.9,12.2-43.4,20.1-67.4,23.8c-14.5,2.3-29.1,2.8-43.7,1.7
		c-42.1-3.2-79.1-18.4-110.9-45.7c-27-23.1-45.7-51.5-56.4-85.1c-3.1-9.8-5.3-19.8-6.8-30.1c-0.9-6.7-1.6-13.5-1.5-20.3
		c-0.3-2.3,0.6-3,3.1-3c13.8,0.1,27.6,0,41.3,0.1c2.2,0,3.4-2.1,5.6-1.8c0.4,0.1,0.6-1,0.1-1.4c-2.1-1.7-1-3.6-0.6-5.6
		c0.8,0.4,1,1.1,0.9,2c0.1,1-0.4,2.3,1,2.8c1.6,0.6,1.5,2,1.5,3.3c-0.5,0.7-1.3,0.6-2,0.5c-2.3-0.2-2.5,1.8-1.7,2.5
		c1.8,1.8,1.1,3.7,1.3,5.7c0.1,0.7-0.2,1.8,1,1.7c1.2-0.1,0.9-1.1,0.9-1.9c0.1-2-0.5-4.2,1.5-5.8c2.6,1.4,2.5,4,3.3,6.3
		c-0.1,0-0.2,0-0.2,0c-1.4,0.4-3,0.2-3.2,2.4c-0.1,2.1,0.8,2.6,2.6,2.4c0.2,0,0.6,0.3,0.7,0.5c0.7,1.4,1.7,0.7,2.6,0.4
		c1,2.3,2.8,4.2,3.4,6.7c-1.2,2.1,0.6,5.2-2.4,6.7c0,0,0,0.1,0,0.2c0,3,0,6,0,9c0,0.5,0,1,0.6,1.1c0.5,0.1,0.8-0.1,1.2-0.4
		c1.8-1.3,1.5-3.1,1.5-4.8c0-0.7,0.2-1.3,1.1-1.2c0.8,0,0.8,0.6,0.9,1.2c0.1,0.7-0.2,1.6,0.7,2.1c1,0.6,0.9,1.2,0,1.9
		c-1.1,0.8-0.6,1.4,0.5,1.3c1.6-0.1,2.4,0.4,2.2,2.1c-0.1,1.1,0.6,1.3,1.5,1.2l0,0c-0.4,1.6,0.3,2.2,1.9,2l0,0c0,3.4,0,3.4,3.3,3.4
		c3.2,0,6.4,0,9.6,0c0.7,0,1.8,0.3,2-0.7c0.3-1.4,1.3-1.1,2.2-1.1c3.5-0.1,4.7-1.3,4.6-4.7l0.1-0.1c2.6-0.2,1-2.2,1.4-3.3l0,0
		c0.5,0,0.9,0,1.4,0c0.7-0.1,1.8,0.2,1.9-0.9c0-1.1,0.9-2.6-1.1-3c0-0.7,0.4-1.1,1-1.5c1.5,0.3,2.3-0.2,2.1-1.8
		c-0.1-0.9-0.1-1.7-0.6-2.5c0.6-0.7,0.6-1.6,0.5-2.4c0-1,0.4-1.4,1.4-1.3c1.9,0.7,2.6-1.3,2.8-2c0.7-2.3,1.5-4.4,2.5-6.6
		c0.4-0.9,0.1-2.2,0.1-3.3c0.7-1.5-0.2-3.5,1.4-4.7c4.4,0.1,5.4-0.9,5.4-5.1c0-1.6,0-3.3,0-4.9l0,0c1.4,0.2,1.6-0.7,1.5-1.8
		c0-0.9,0.2-1.7,1.3-1.5c2,0.3,2.2-0.9,2.1-2.4c-0.1-1.5-0.1-3-0.1-4.5c0.1-1,0.1-2.1,0.2-3.1c1.3-0.1,1.4,0.7,1.4,1.6
		c0.1,1.5,1.7,2.4,2.8,1.5c0.8-0.6,2.1-1.1,2.3-1.8c0.6-2.1,2.1-1.2,3.3-1.4c0.7-0.1,1.6-0.2,1.7,0.8c0.1,0.8,0.5,1.8-0.5,2.4
		c-0.5,0.4-1,0.8-1.6,1.1c-1.4,0.9-2.1,1.4,0,2.6c0.9,0.5,2.3,1.7,2.1,3.3c-0.2,1.6,0.8,1.8,2.1,1.8c-0.1,1.6-0.1,3.1-0.2,4.7
		c-1.3-0.1-2,0.3-1.9,1.7c0.1,2.2,0.1,4.4,0,6.6c-0.1,1.4,0.6,1.8,1.9,1.7c0.3,1.4-0.3,2.9,0.6,4.2c-0.2,1.4-1.9,3.1,0.9,3.9
		c0.3,0.7-0.3,1.7,0.5,2.3c-0.1,0.4-0.1,0.8-0.3,1.1c-1.5,3.3,1.8,5.3,2.1,8.1c0,0.1,0.7,0.2,1.1,0.3c3,0.3,3.7,3,5.4,4.8
		c-0.8,0.1-1.9-0.3-1.9,1.1c0,0.4,0.3,0.7,0.8,0.7c1.4,0,1-1.1,1.1-1.8c0.7-0.1,1.7,0.3,1.9-0.9c1.9,2.3,4.4,4.2,6.8,5.6
		c1.7,1,3.8,2.5,6.2,2.1c-0.2,1.5,0.6,1.9,2,1.7l0,0c-0.1,1.2,0.6,1.5,1.6,1.5c2.2,0,4.4,0,6.5,0c4.6,0,9.1-0.1,13.7-0.1
		c0.2,1.6-0.5,2.2-2.1,2c-0.5,0-1-0.1-1.2,0.6c-0.1,0.5,0.2,0.8,0.6,0.8c2.2,0,4.5,0,6.7,0c0.3,0,0.6-0.3,0.6-0.6
		c0-0.3-0.3-0.7-0.6-0.6c-2.6,0.5-2.7-1.4-3.2-3c2.5-0.4,4.1-2.9,7-2.6c0.7,0.1,1.9-0.8,2.3-1.5c0.8-1.5,2-1.7,3.4-1.6
		c1.1,0,2.2,0,3.3,0c0.5,1.8-0.3,3.9,1.6,5.3c0,0.4,0,0.8,0,1.2c-0.1,0.7,0.4,1.6-0.5,1.9c-1,0.3-0.7-0.8-1.1-1.2
		c-0.7-0.8-1.4-0.7-1.8,0.4c-0.5,1.4-1,1.4-1.5,0c-0.4-1.1-1.4-1.2-1.7-0.3c-0.5,1.4-1.3,1.4-2.4,1.4c-0.5,0-1.1,0-1.1,0.6
		c-0.1,0.8,0.6,0.8,1.2,0.8c1,0,1.7,0,2.2,1.2c0.5,1.2,4.1,0.5,5.2-0.2c1.8-1.1,3.6-2.1,4.2-4.3c0-0.1,0.5-0.1,0.7-0.1
		c4,0,8,0,12.1,0c5.1,0,5.1,0,4.8-4.6c0.2-0.6-0.3-1.6,0.7-1.8c1-0.2,0.6,0.9,1,1.3c0.9,0.8,2.1,0.8,2.8,0.1
		c0.7-0.7,0.8-2.2-0.1-2.7c-1.2-0.8-1-1.7-1-2.7c0-2.5,0-5.1,0-7.6C236.7,223.2,236.7,223.2,240,223.2c0,3.9,0,7.7,0,11.6
		c0,0.6-0.3,1.5,0.6,1.5c1.1,0.1,0.8-1,0.8-1.6c0-3.3,0-6.6,0-9.9C241.5,223.8,241.3,223.1,240,223.2z M140.2,204.9
		c0,3.2,0,6.5,0,9.7c0,0.7-0.3,1.8,0.9,1.8c1.3,0.1,1-1,1-1.7c0-6.6,0-13.1,0-19.7c0-0.7,0.2-1.8-1-1.7c-1.2,0.1-0.9,1.1-0.9,1.9
		C140.1,198.4,140.2,201.7,140.2,204.9z M296.6,249.9c0.7-0.3,2.3,0.7,2.4-0.9c0.1-1.5-1.4-0.8-2.2-1c-1.2-0.2-1.4-0.7-0.4-1.4
		c0.6-0.4,0.8-0.7,0.6-1.3c-0.2-0.6-0.7-0.6-1.2-0.6c-1,0-1.6-0.4-2.4-1c-1.1-0.9-2.8-0.7-4.1-0.1c-0.8,0.3-0.7,1.6-0.3,2.1
		c0.7,1,1.3,2.3,2.9,2.3c0.6,0,1.5-0.2,1.7,0.5C294,250.3,295.4,249.8,296.6,249.9z M279.7,236.5c3.8,0,4.4-0.7,4-4
		c-0.1-1.1-0.7-1.3-1.6-1.3c-0.9,0-1.9,0-1.8,1.2c0.2,1.7-0.6,2.3-2.2,2.1c-0.6-0.1-1.1,0.1-1.1,0.9c0,0.9,0.6,1,1.3,1
		C278.7,236.5,279.2,236.5,279.7,236.5z M238.1,246.5c0,0.5,0,1,0,1.4c-0.1,1.2,0.1,2,1.7,2c1.4,0,1.9-0.6,1.7-1.9
		c-0.1-0.7,0.1-1.4,0-2.1c-0.2-1.4-1.2-2.5-2.4-2.5c-1.6,0-0.7,1.6-1,2.4C238.1,246,238.1,246.3,238.1,246.5z M79.6,247.2
		c0-2.3-0.7-3-2.5-2.5c-0.3,0.1-2.4,4.4-2.2,4.6c0.2,0.2,0.4,0.4,0.7,0.5C78.1,250.7,79.6,249.7,79.6,247.2z M140.2,227.1
		C140.2,227.1,140.2,227.1,140.2,227.1c0,1,0,2,0,3.1c0,0.6,0.2,1.1,0.9,1.1c0.7,0,1-0.4,1-1.1c0-2,0-3.9,0-5.9c0-0.6-0.3-1-1-1
		c-0.6,0-0.8,0.4-0.8,0.9C140.2,225.2,140.2,226.1,140.2,227.1z M156,246.5c0.9,0,1.5,0.1,2.2,0c0.9-0.1,1.1-1.2,0.7-1.3
		c-1.2-0.4-1.7-1.8-3-2c-1.8-0.2-2.7,0.9-2.1,2.5C154.3,247,155.4,246.3,156,246.5z M231.4,249.9c0.6,0,1.1,0,1.7,0
		c0.7,0,1.6,0.1,1.5-1c0-0.9-0.8-0.9-1.4-0.9c-1.3,0-2.6,0-3.8,0c-0.6,0-1.4,0-1.4,0.9c0,1.1,0.8,1,1.5,1
		C230.2,249.9,230.8,249.9,231.4,249.9z M240.1,239.8c-0.3,1.2,0.4,1.5,1.6,1.6c1.4,0,1.8-0.5,1.8-1.8c0-1.3-0.6-1.6-1.8-1.6
		C240.4,237.9,239.9,238.4,240.1,239.8z M113.5,248.7c-0.1-1.2,0-2.2-1-2c-1.1,0.2-2.1,1.2-2.3,2.2c-0.3,1.1,0.9,0.9,1.7,1
		C113.2,250,113.6,249.3,113.5,248.7z M218.9,246.5c-0.7,0.3-2.4-0.6-2.4,0.7c0,1.3,1.7,0.5,2.6,0.7c0.4,0.1,0.8,0,1.2,0
		c0.5,0,1,0,1.1-0.6c0.1-0.8-0.6-0.8-1.2-0.8C219.9,246.5,219.5,246.5,218.9,246.5z M202.9,244.6c0.6-0.2,1.6,0.3,1.6-0.8
		c0-0.9-1-0.6-1.5-0.6c-0.6,0-1.5-0.2-1.5,0.7C201.4,244.8,202.3,244.6,202.9,244.6z"/>
	<path class="st1" d="M391.4,210c0-1.1-0.4-2.3,0.3-3.4C391.7,207.7,392,208.9,391.4,210z"/>
	<path class="st0" d="M65,199.4c0-1.3,0.1-2.7-1.5-3.3c1.4-1.9,1.2-2.5-1-2.8c0.1-0.8-0.1-1.5-0.9-2c-0.3-3.2-2.2-5.7-3.4-8.5
		c-0.8-2-2.7-3.8-2.6-6.4c0.1-1.9-1.6-3.6-1.6-5.8c0-0.6-1.7-1.1-2.6-1.7c0-0.8,0.1-1.7-0.6-2.3c0-1.2,0.2-2.2-1.3-3.3
		c-1.1-0.8-0.8-3.7-2.1-4.9c-2.2-2.1-1.3-5.2-3-7.5c-1-1.4-0.5-3.2-0.4-4.9c0.1-0.8,0.7-0.8,1.3-0.7c2,0.3,4-0.6,6.1-0.1
		c1.7,0.4,3.5,0.3,5.2-0.5c0.7,0.6,1.5,0.6,2.4,0.5c0,1.4,0.6,1.9,2,1.8c1.3-0.1,2.5,0.1,3.8,0.1c0.2,1.9,1.7,1.4,2.9,1.6
		c0,1.2-0.3,2.5,0.6,3.6c0.6,1.3,0.7,3.1,2.8,3c-0.1,1.8-0.1,3.6,1.2,5.1c0.5,0.6,0.3,1.5,0.4,2.3c0,0.8-0.1,1.6,1,1.9
		c1.2,0.4,0.6,1.8,1.4,2.5c0.6,1.4,0.8,3,1.2,4.4c0.4,1.5,1.8,2.7,2.2,4.4c0.6,2.4,3,4,3,6.7c0,0.8,0.7,0.6,1.3,0.7
		c0,0.6,0.1,1.2,0.1,1.9c-0.3,1.4,0.4,1.8,1.7,1.5c0.2,1.3-0.2,2.6,0.6,3.8c0.7,1.5,1,3.1,1.2,4.7c0.2,1.3,0.9,2.8,1.9,3.8
		c1,1,1.3,1.9,1.4,3.1c0.1,1.7,1.8,5.4,3,6.5c0.5,0.4,0.4,1,0.4,1.6c0,1.1,0.2,2,0.9,2.9c0.4,0.5,0.9,1,1.7,0.7
		c0.7-0.2,0.9-0.8,1-1.5c0-1-0.3-2.2,1.3-2.3c0.1,0,0.4-0.2,0.4-0.3c-0.8-1.8,0.4-2.8,1.5-4c0.6-0.6,0.7-1.9,0.9-2.6
		c0.5-2.3,2.9-3.6,2.6-6.2c-0.3-2.2,0.8-4.8,1.8-6.1c1.7-2.1,1.7-4.2,2.1-6.4c0-0.3,0.3-0.7,0.5-0.8c2.1-0.3,1.9-2.1,2.7-3.4
		c0.7-1.1,0.9-2.2,1.1-3.3c0.3-1.4-0.5-3,1.6-3.9c0.9-0.4,1.2-2.7,1.5-3.9c0.6-2.3,1.7-4,3.2-5.7c0.4-0.5,0.3-1.5,0.4-2.3
		c0.4-1.5-0.6-3.4,1.7-4.4c0.6-0.2,1.3-2.3,1.5-3.4c0.5-2.8,3-3.8,4.5-5.7c0.4-0.5,1.2-0.6,2-0.7c1,0,2.2,0.3,2.7-1.3
		c0.2-0.7,1.3-0.4,2-0.4c4,0,7.9,0,11.9,0c2.3,0,3.2,1.2,2.1,3.2c-0.7,1.3-1.1,2.6-1.2,4c-0.1,1.8-1.8,2.7-2.3,4.4
		c-0.8,2.7-2.6,5.1-3.3,8c-0.4,1.7-0.5,4-2.7,5.2c-1.1,0.6-0.3,2.2-0.8,3.3c-1.1,2.4-3.1,4.3-3.7,7c-0.2,1-0.9,1.9-0.7,2.9
		c-0.1,1-0.1,2.1-0.2,3.1c-1.8-0.2-1.2,1.5-1.8,2.2c-2,2.3-3.1,4.9-3,8c0,0,0,0,0,0c-1.1,0-2.1,0-1.9,1.6c0.1,0.9-0.3,1.6-0.8,2.4
		c-1.1,1.8-0.4,4.3-2.6,5.6c-0.1,0,0,0.3-0.1,0.5c-1.6,1.3-0.7,3.2-1.4,4.7c-0.6,0.3-1.8-0.3-1.7,0.8c0.1,2.4-1.9,4.1-1.7,6.5
		c0,0.4-0.1,1-0.3,1.1c-2.5,0.4-1.3,2.3-1.6,3.5c-1-0.1-1.4,0.3-1.4,1.3c0,0.8,0.1,1.7-0.5,2.4c-2.2,0.8-1.2,2.8-1.6,4.3
		c-0.6,0.3-0.9,0.8-1,1.5c-2.5,0.3-2.4,2.1-2.2,3.9c0,0,0,0,0,0c-2.5,0.2-1.2,2.1-1.4,3.3c0,0-0.1,0.1-0.1,0.1
		c-1.1-0.2-1.7,0.2-2.2,1.3c-0.5,1.2-1.3,2.2-3,2.1c-5.5-0.2-11.1-0.1-16.6-0.2c0,0,0,0,0,0c0.2-1.4-0.2-2.3-1.9-2c0,0,0,0,0,0
		c-0.4-1.7,0.7-3.5-1.2-5.2c-0.7-0.6-2.1-2-2-3.1c0.2-2.7-2.1-4.6-1.8-7.2c0-0.3-0.1-0.8-0.2-0.8c-2-0.3-1.5-1.9-1.7-3.1
		c-0.1-0.5-0.5-0.8-0.9-1.1c-0.5-2.5-2.3-4.4-3.4-6.7c-0.1-1.5,0.2-3.4-1.4-4.2c-0.8-0.4-0.9-0.9-1.1-1.5c-0.8-2.2-0.7-4.9-3.3-6.3
		C66,201.1,66.4,200,65,199.4z"/>
	<path class="st0" d="M282.8,219.3c-0.7-2-0.3-4.1-0.7-6.1c0-0.8,0.4-1.8-0.9-2c-1-0.2-0.7-1.1-0.7-1.7c0-2.5-0.1-5,0-7.5
		c0-0.9-0.2-1.7,1.1-2.2c1.3-0.5,0.5-2.1,0.6-3.2c0.3-1.4,0-2.9,0.7-4.2c1.4-2.6,2.4-5.6,4.4-7.8c1.7-2,1.5-5.5,4.8-6.1
		c0.5-2.4,3.4-2.7,4.4-4.7c1.1-1.1,3.2-1.3,3.4-3.3c2.3-0.4,4.4-1.4,6.4-2.2c2.2-0.8,4.4-1.2,6.4-2.1c1.1-0.5,2.1-0.9,3.2-0.9
		c3.1-0.1,6.2,0.2,9.2-0.1c3.2-0.3,6.2,1,8.7,1.9c2.7,1,5.7,1.9,8.4,3.1c1,0.4,0.2,1.7,1.3,2.3c2.6,1.4,4.6,3.6,6.7,5.7
		c1.7,1.7,3.2,3.8,5.3,5.2c0.8,0.5,0.7,1.1,0.9,1.7c0.1,0.7,0,1.7,1.2,1.7c0.6,0,0.8,0.6,0.7,1c-0.5,2.9,1.5,5.2,1.7,8
		c0.1,1,0.8,0.8,1.4,0.9c0,4.4,0.1,8.8,0.1,13.2c0,1.7,0.1,3.4,0,5.1c-0.1,1.4,0.6,1.8,1.9,1.6c0,0,0,0,0,0
		c-0.6,4.7,0.7,9.2,1.6,13.7c0,0.2,0.1,0.6,0.2,0.7c2.4,0.8,1.5,2.8,1.6,4.3c0.1,1,0.4,1.4,1.4,1.4c0.2,1.7,0,3.4,1.7,4.9
		c1.3,1.2,0.1,2.9-1.9,2.9c-3.8,0-7.6,0.1-11.4,0.1c-0.9,0-1.8-0.1-2.6-0.1c-1.9,0-4,0.3-5.1-1.8c-0.2-0.9-0.5-1.9-0.7-2.8
		c0.4-1.5-0.3-2-1.7-2c0-0.6,0.2-1.3-0.8-1.4c-1.2,0-2.2,0.5-2.4,1.5c-0.4,1.7-1.2,1.7-2.8,2c-1.7,0.3-3.8,0.8-5.2,2.3
		c-0.2,0.2-0.5,0.7-0.7,0.6c-2.6-0.4-4.6,1.6-7,1.6c-3.8,0-7.6,0-11.3,0c-3.3,0.1-6.2-1.6-9.4-2c-0.6-2.4-2.6-1-3.9-1.4
		c-0.1-0.4-0.2-1.1-0.2-1.1c-2.5,0.4-2.9-2.4-4.7-3c-1.8-0.5-2.5-2.2-3.9-3.3c-1.7-1.2-2.5-3.5-4.8-4c0,0,0,0,0,0c0-1,0-1.9-1.2-2.5
		c-0.9-0.5-1.6-1.3-1.9-2.3c-0.5-1.9-2.6-3.1-2.6-5.3C283.3,219.6,282.9,219.5,282.8,219.3z M315.7,224.7L315.7,224.7
		c0,1.2,0.4,1.9,1.8,1.8c1.8-0.1,3.5-0.1,5.3,0.1c1.5,0.1,1.8-0.6,1.8-1.8c1.5,0,3.6,0.6,4.4-0.4c1.2-1.7,3.4-1,4.8-2.7
		c0.9-1.1,2.3-1.9,2.5-3.6c0.6-0.5,1.2-0.9,1.8-1.4c0.7-0.1,1.5,0,1.4-1c0-0.5-0.2-1.2,0.4-1.5c2-0.9,1.5-2.6,1.5-4.2
		c0.4-4,0-8.1,0-12.1c0-1.5-1-1.3-1.9-1.4c0-0.4-0.1-0.8-0.1-1.2c-0.1-0.7,0.3-1.4-0.7-2c-2.2-1.3-3.7-3.5-5.7-5.2
		c-1.7-1.4-3.2-2.6-5.2-2.7c-4.1-0.3-8.2-0.1-12.3-0.1c-1.2,0-2.2,0.3-2.8,1.4c-1,0.3-2.3-0.5-2.8,1.1c0,0.8-0.7,0.8-1.3,1
		c-2.1,1-3.4,2.8-4.6,4.7c-1.2,0.8-1.2,2.1-1.4,3.3c-2.9-0.1-1.7,2-1.9,3.4c0,3.5-0.6,7,0.4,10.5c0.2,1.2-1.4,2.7,0.6,3.7
		c0.8,0.8,1.5,1.7,2.3,2.5c-0.4,1.6,1.8,1.1,1.8,2.1c0.1,2.4,1.6,2.8,3.5,2.6l0,0c0.2,0.6-0.3,1.4,0.6,1.8
		C311.8,223.9,313.5,225.2,315.7,224.7z"/>
	<path class="st0" d="M170.7,241.5c-2.4,0.4-4.6-1.1-6.2-2.1c-2.4-1.4-4.9-3.3-6.8-5.6c-1.3-0.7-1.5-2.5-2.8-3.1
		c-2.4-1.1-2.4-4-4.4-5.4c-1.8-1.2-0.8-4-3-5c-0.8-0.7-0.2-1.6-0.5-2.3c-0.1-1.3,0.6-2.9-0.9-3.9c-0.9-1.3-0.3-2.8-0.6-4.2
		c0-3.3,0-6.7,0-10c0.1-1.6,0.1-3.1,0.2-4.7c0.7-1.4,1.7-2.6,1.4-4.2c-0.2-1.2,1.6-0.8,1.5-1.3c-0.2-2.4,1.8-4,1.8-6.3
		c0.6-0.1,1.3,0.1,1.8-0.3c2.5-0.1,0.9-2.1,1.5-3.1c0.5-0.1,0.4-0.6,0.5-0.9c2.3-1.1,3.6-3.2,5.2-4.9c1.4-1.6,2.6-2.9,5-2.5
		c1.6,0.2,1.6-1.8,2.8-2.4c0.4-0.2,0.8-0.6,1.4-0.6c1-0.1,2.2,0.2,2.3-1.4c0-0.2,0.5-0.4,0.8-0.4c4.2,0.4,7.9-1.7,12.1-1.7
		c5.5,0,10.7,2.3,16.2,1.8c0.2,0,0.5,0,0.5,0.1c0.4,2.7,4,1.7,4.8,4.1c0.5,1.4,2.3,0.3,3.2,1.3c0.4,0.3,0.7,0.6,1.1,0.9
		c-0.1,1.4,0.5,2,2,1.9c0.1,0.2,0.3,0.3,0.4,0.5c0.1,0.1,0.2,0.4,0.3,0.4c2.1,0.1,3,2,3.8,3.2c1.7,2.6,3.9,4.8,5.4,7.4
		c0.4,0.6,0.3,1.5,0.5,2.3c0.3,1.3,0.1,2.9,2,3.4c0.6,0.2,0.5,1.3,0.5,2c0.1,5.6,0.2,11.3,0.3,16.9c0,1.3,0.3,2.2,1.8,2
		c0,1.6,0.1,3.2,0.1,4.7c0.2,2-0.5,4,1.2,5.9c0.7,0.8,0.3,2.7,0.2,4.1c-0.1,1.4,0.5,2,1.9,2c0,1.1,0.1,2.2,0.1,3.2
		c0.1,1.3-0.6,2.9,1.3,3.6c0.4,0.2,0.6,0.6,0.4,1.2c-0.7,1.6,0.3,1.9,1.6,1.9c0.3,4.7,0.3,4.7-4.8,4.6c-4,0-8,0-12.1,0
		c-0.5-2.2-2.2-1.1-3.5-1.3c-1.9-1.4-1.1-3.5-1.6-5.3c0.2-1-0.3-1.4-1.3-1.4c-1,0-2-0.1-1.9,1.3c-1.4-0.1-2.6,0.1-3.4,1.6
		c-0.4,0.7-1.6,1.6-2.3,1.5c-2.9-0.4-4.5,2.2-7,2.6c-0.3,0.3-0.6,0.6-0.9,1c-4.6,0-9.1,0.1-13.7,0.1c-0.2-0.9-0.7-1.2-1.7-1.2
		c-2.2,0-4.3-0.1-6.5-0.2c0,0,0,0,0,0C172.7,241.9,172.2,241.1,170.7,241.5z M201.8,194.6c1.2-2.1,0-4.4-2.5-4.7l0,0
		c0.2-1.2-0.6-1.4-1.6-1.5c-0.6,0-1.3,0.2-1.7-0.8c-0.7-1.7-2-2.6-4-2.5c-3.2,0.1-6.4-0.1-9.6,0c-1.8,0.1-3.7-0.4-5.4,0.5
		c-1.6,1.2-3.5,1.7-5.1,3.2c-3.4,3.1-5.8,6.4-6.1,11c-1.2,0-1.9,0.3-1.9,1.7c0.1,2.3,0.1,4.6,0,6.8c-0.1,1.5,0.7,1.7,1.9,1.7
		c-0.5,2.7,0.7,5.2,2.3,7c2.4,2.7,4.7,5.7,8.4,7c1,0.3,2,1.1,2.8,0.4c0.9-0.8,1,0.4,1.6,0.3c0,1.2,0.4,1.9,1.8,1.8
		c2.2-0.1,4.4-0.1,6.5,0c1.4,0.1,1.8-0.6,1.8-1.8c2,0.6,3.3-0.9,4.9-1.5c1.7,0.6,1.6-1.3,2.5-1.7c3.4-1.4,3.9-5,6.1-7.3
		c1.2-1.3,1.1-3.7,1.5-5.6c0-2.2,0-4.4,0-6.6c0-1.2,0.2-2.6-0.1-3.7c-0.4-1.5-1-3.2-3.2-2.9C202.4,195,202.1,194.8,201.8,194.6z"/>
	<path class="st0" d="M268.6,236.5c-0.1,2.3,0.2,4.6-1.5,6.6c-6.3,0.1-12.6,0.2-18.9,0.2c-0.8-0.4-1-1.4-1.6-2c0-19.3,0-38.5,0-57.8
		c0-10.8,0-21.6,0-32.3c0-0.9,0-1.7,0.1-2.6c0.2-3,0.7-3.3,3.7-3.4c3.6,0,7.1,0.3,10.7-0.1c3.4-0.4,5.1,1.8,7.1,3.5
		c0.7,0.6,0.3,1.5,0.3,2.3c0,28.1,0,56.3,0,84.4C268.6,235.8,268.6,236.1,268.6,236.5z"/>
	<path class="st2" d="M233.3,224.8c0-3.2,0-6.3,0-9.5c0-0.6-0.4-1.7,0.6-1.8c1.1,0,0.9,1.1,0.9,1.9c0,5.1,0,10.3,0,15.4
		c0,1.2,0.1,2.4,0,3.6c0,0.7,0.4,2-0.7,2c-1.3,0-0.7-1.3-0.8-2.1C233.2,231.1,233.3,227.9,233.3,224.8
		C233.3,224.8,233.3,224.8,233.3,224.8z"/>
	<path class="st2" d="M315.7,161.8c3.9,0,7.9,0,11.8,0c0.7,0,1.6-0.2,1.7,0.8c0.1,1.3-1,1-1.7,1c-3.3,0-6.6,0-9.9,0
		C316.1,163.8,315.5,163.2,315.7,161.8C315.7,161.8,315.7,161.8,315.7,161.8z"/>
	<path class="st2" d="M84.9,172.7c-0.3,0.8,0.7,2.1-0.9,2.4c-1.1,0.2-2.3,0.4-2.6-1.3c-0.1-0.6-0.8-0.5-1.2-0.7
		c-1-0.6-0.6-1.5-0.6-2.3c0-0.9,0.8-0.8,1.4-0.9C84.6,169.6,84.9,169.8,84.9,172.7z"/>
	<path class="st2" d="M50.9,166.6c0.6,0.7,0.5,1.5,0.6,2.3c-0.6,1.5-0.5,3.1-0.5,4.6c0,0.7,0.1,1.5-1,1.5c-0.9,0-0.9-0.7-0.9-1.4
		c-0.1-1.5,0.2-3-1.2-4.4C46.4,167.9,47.8,166.6,50.9,166.6z"/>
	<path class="st2" d="M152.3,183c-0.5,0.4-1.2,0.2-1.8,0.3c-1.5,0.1-1.7-0.9-1.5-2c0.2-1.6,1.4-2.3,2.6-2.8c0.9-0.3,1.9-0.1,2.7,0.5
		c-0.1,0.4,0,0.8-0.5,0.9C151.2,180,152.7,181.9,152.3,183z"/>
	<path class="st2" d="M96.5,202.6c-0.2,0.9,0.6,2.6-1.6,2.5c-0.6,0-1.3,0.2-1.7-0.6c-0.3-0.7,0.1-1.1,0.8-1.5
		c0.7-0.3,0.5-1.1,0.5-1.7c0.1-0.7-0.1-1.5,1-1.5c1.1,0,0.9,0.9,0.9,1.6C96.5,201.9,96.5,202.2,96.5,202.6z"/>
	<path class="st2" d="M93.1,199.2c0,0.5,0,0.9,0,1.4c0,0.6-0.2,1.1-0.9,1.1c-0.7,0-1-0.4-1-1c0-1,0.1-2-1.2-2.5
		c-0.4-0.1-0.3-0.7-0.2-1.1c0.4-0.8,1.2-0.5,1.9-0.5c0.6,0,1.2,0,1.3,0.8C93.1,198,93.1,198.6,93.1,199.2
		C93.1,199.2,93.1,199.2,93.1,199.2z"/>
	<path class="st2" d="M67.9,148.7c-1.1-0.3-2.7,0.3-2.9-1.6c0-1.5,1.3-2.7,2.2-2.6c1.4,0.1,0.5,1.8,0.7,2.8
		C68,147.7,67.9,148.2,67.9,148.7z"/>
	<path class="st2" d="M309.4,161.8c-0.1,0.7,0.3,1.8-0.9,1.8c-1.4,0.1-3,0.6-4.1-0.4c-0.7-0.6-0.1-1.4,1-1.5
		C306.7,161.8,308,161.8,309.4,161.8L309.4,161.8z"/>
	<path class="st2" d="M282.8,192.3c-0.7,1.3-0.4,2.8-0.7,4.2c-1.7-0.3-2.4-1.8-1.8-3.8C280.8,191.1,281.9,192,282.8,192.3z"/>
	<path class="st2" d="M309.4,161.8c0-0.5,0-1.3,0.7-1.3c1.7-0.1,3.3-0.1,5,0c0.7,0,0.6,0.8,0.7,1.3c0,0,0,0,0,0
		C313.6,161.8,311.5,161.8,309.4,161.8C309.4,161.8,309.4,161.8,309.4,161.8z"/>
	<path class="st2" d="M211.9,175.7c-0.1-0.2-0.3-0.3-0.4-0.5c0.3-1.5-0.4-2.1-2-1.9c-0.4-0.3-0.7-0.6-1.1-0.9
		c0.7-0.2,1.4-0.5,2.1-0.5c0.8,0,2-0.5,2.2,0.6C212.9,173.5,213.7,175,211.9,175.7z"/>
	<path class="st2" d="M71.3,155.3c-2.1,0.1-2.2-1.7-2.8-3C71.7,151.5,71.9,151.6,71.3,155.3z"/>
	<path class="st2" d="M299.7,170.4c-0.2,2.1-2.3,2.2-3.4,3.3c-1.8-1.8,1.1-2,1.2-3.4C297.6,169.4,299,170.1,299.7,170.4z"/>
	<path class="st2" d="M230,233.2c0-1.1-0.1-2.2-0.1-3.2c0.2-0.6-0.4-1.9,0.9-1.8c0.9,0,0.7,1.2,0.6,1.7
		C231,231,232.5,232.9,230,233.2z"/>
	<path class="st2" d="M226.6,218c0-1.6-0.1-3.2-0.1-4.7c1.4-0.2,1.7,0.7,1.5,1.7C227.7,216,228.9,217.8,226.6,218z"/>
	<path class="st2" d="M59.2,145.2c-0.9,0.1-1.7,0.1-2.4-0.5c0.6-0.6,1.3-0.9,2.1-0.9c0.9,0,2.3-0.4,2.4,0.8
		C61.3,145.6,59.9,144.9,59.2,145.2z"/>
	<path class="st2" d="M85.3,190.4c-0.9-1.2-0.4-2.5-0.6-3.8c0.7,0,1.7-0.2,1.6,0.8C86.2,188.5,87.1,189.9,85.3,190.4z"/>
	<path class="st2" d="M75.2,167.1c-0.8-0.7-0.2-2.1-1.4-2.5c0.7-0.4,1.6-1.4,2.1-0.4C76.4,165,76.9,166.5,75.2,167.1z"/>
	<path class="st2" d="M83,185.1c0-0.6-0.1-1.2-0.1-1.9c0.8,0.1,2-0.4,1.9,1C84.8,185.5,83.7,185,83,185.1z"/>
	<path class="st1" d="M75.2,220.8c0.4,0.3,0.8,0.6,0.9,1.1c0.2,1.2-0.4,2.8,1.7,3.1c0.1,0,0.3,0.6,0.2,0.8c-0.3,2.6,2,4.5,1.8,7.2
		c-0.1,1,1.3,2.5,2,3.1c1.9,1.6,0.9,3.5,1.2,5.2c-1,0.2-1.7-0.1-1.5-1.2c0.2-1.7-0.6-2.2-2.2-2.1c-1.1,0.1-1.6-0.5-0.5-1.3
		c1-0.7,1.1-1.4,0-1.9c-0.9-0.5-0.6-1.3-0.7-2.1c-0.1-0.6-0.1-1.1-0.9-1.2c-0.9-0.1-1.1,0.5-1.1,1.2c0,1.8,0.3,3.6-1.5,4.8
		c-0.4,0.3-0.7,0.6-1.2,0.4c-0.6-0.2-0.6-0.7-0.6-1.1c0-3,0-6,0-9c0-0.1,0-0.2,0-0.2C75.8,226,74,222.9,75.2,220.8z"/>
	<path class="st1" d="M348.7,242.7c1.1,2.2,3.2,1.8,5.1,1.8c0.9,0,1.8,0.1,2.6,0.1c0,1.1,0,2.2,0,3.3l0,0c-0.7,0-1.1,0.1-1.5,0.8
		c-0.7,1.4-2.7,1.6-3.2,0.2c-0.5-1.1-1.2-1.1-2.1-1.1c-2.6,0-5.2,0-7.7,0c-1.1,0-2.2,0.1-2.8-1.2c-0.3-0.5-1.3-0.7-0.9-1.6
		c0.3-0.8,1.1-0.5,1.7-0.5c1.3,0,2.8-0.5,3.3,1.5c0.1,0.6,1.2,0.6,1.5-0.1C345.3,244,347,243.4,348.7,242.7z"/>
	<path class="st1" d="M84.9,243.2c5.5,0,11.1,0,16.6,0.2c1.8,0.1,2.5-1,3-2.1c0.5-1,1.1-1.5,2.2-1.3c0.1,3.4-1.1,4.6-4.6,4.7
		c-0.9,0-1.9-0.3-2.2,1.1c-0.2,1.1-1.3,0.7-2,0.7c-3.2,0-6.4,0-9.6,0C84.9,246.5,84.9,246.5,84.9,243.2z"/>
	<path class="st1" d="M140.2,204.9c0-3.2,0-6.5,0-9.7c0-0.7-0.3-1.8,0.9-1.9c1.3-0.1,1,1,1,1.7c0,6.6,0,13.1,0,19.7
		c0,0.7,0.3,1.8-1,1.7c-1.2-0.1-0.9-1.1-0.9-1.8C140.2,211.4,140.2,208.2,140.2,204.9z"/>
	<path class="st1" d="M289,229.9c2.3,0.5,3.2,2.8,4.8,4c1.4,1,2.1,2.7,3.9,3.3c-1.6,1.1-2.5,2.2-0.5,3.8c0.1,0.1,0,0.3,0,0.4l0,0
		c-2.3,0.4-3.9-0.5-4.9-2.6c-0.2-0.5-0.6-0.7-1.1-0.8c-0.8-0.2-2.1,0.5-2.1-0.8c0-1,1.3-0.5,2-0.7c0.6-0.1,1.1-0.2,1.1-0.9
		c0.1-1.2-0.4-2-1.6-1.4c-1.7,0.8-1.7-0.1-1.7-1.3C289,231.9,289,230.9,289,229.9z"/>
	<path class="st1" d="M212.9,243.3c1.2,0.2,3-0.9,3.5,1.3c-0.2,0-0.7,0-0.7,0.1c-0.6,2.2-2.4,3.2-4.2,4.3c-1.1,0.7-4.7,1.4-5.2,0.2
		c-0.5-1.2-1.2-1.2-2.2-1.2c-0.5,0-1.3,0-1.2-0.8c0-0.6,0.6-0.6,1.1-0.6c1.1,0,1.9,0,2.4-1.4c0.3-0.9,1.3-0.7,1.7,0.3
		c0.5,1.4,1,1.5,1.5,0c0.4-1.1,1-1.2,1.8-0.4c0.4,0.4,0.1,1.5,1.1,1.2c0.9-0.3,0.5-1.2,0.5-1.9C212.9,244.1,212.9,243.7,212.9,243.3
		z"/>
	<path class="st1" d="M296.6,249.9c-1.3-0.1-2.6,0.4-2.9-1.4c-0.1-0.7-1.1-0.5-1.7-0.5c-1.6,0-2.2-1.3-2.9-2.3
		c-0.4-0.5-0.5-1.8,0.3-2.1c1.3-0.6,3-0.8,4.1,0.1c0.8,0.7,1.4,1.1,2.4,1c0.5,0,1,0,1.2,0.6c0.2,0.6,0,1-0.6,1.3
		c-1,0.7-0.8,1.2,0.4,1.4c0.8,0.2,2.3-0.5,2.2,1C298.9,250.6,297.4,249.6,296.6,249.9z"/>
	<path class="st1" d="M368,236.7c-1,0-1.4-0.4-1.4-1.4c-0.1-1.5,0.8-3.6-1.6-4.3c-0.1,0-0.1-0.4-0.2-0.7c-0.8-4.5-2.1-9-1.6-13.7
		c1.2-0.2,1.6,0.3,1.6,1.4c0,1.3,0,2.7,0,4c0,1.1-0.4,2.5,1.4,2.7c0.2,0,0.5,0.5,0.5,0.7C366.3,229.4,369.2,232.8,368,236.7z"/>
	<path class="st1" d="M147.4,220.4c2.2,1,1.2,3.7,3,5c2,1.3,2,4.3,4.4,5.4c1.3,0.6,1.5,2.4,2.8,3.1c-0.2,1.2-1.2,0.8-1.9,0.9l0,0
		c-1.6-1.8-2.4-4.4-5.4-4.8c-0.4,0-1.1-0.2-1.1-0.3c-0.3-2.8-3.7-4.8-2.1-8.1C147.3,221.1,147.3,220.7,147.4,220.4z"/>
	<path class="st1" d="M302.7,241.2c1.3,0.4,3.3-0.9,3.9,1.4c-0.2,0.2-0.3,0.4-0.5,0.5c-0.6,0.3-1.8-0.2-1.8,0.8
		c0,1.2,1.2,0.7,1.9,0.8c1.2,0.2,1.8,1.7,1.1,2.7c-0.9,1.2-2.2,0.6-3.4,0.6c-1.2,0.1-1.2-0.8-1.2-1.6c0.1-1.5-0.8-1.5-1.9-1.7
		c-1.6-0.4-3.4-1-3.5-3.2c0,0,0,0,0,0c1.1,0.2,2.4-0.5,3.2,0.5c0.5,0.6,0.4,1.7,1.6,1.3C302.9,242.7,302.5,241.8,302.7,241.2z"/>
	<path class="st1" d="M282.8,219.3c0.2,0.1,0.5,0.3,0.5,0.4c0,2.2,2.1,3.4,2.6,5.3c0.3,1,1,1.8,1.9,2.3c1.2,0.6,1.2,1.5,1.2,2.5
		c-0.6,0-1.3,0-1.9,0c-1.8,0-3.1,0.3-3.8-2.4c-0.5-1.9-1-3.8-1.1-5.8C282.2,220.8,282.4,220,282.8,219.3z"/>
	<path class="st1" d="M65,199.4c1.3,0.6,1,1.8,1,2.8c-2,1.5-1.4,3.7-1.5,5.8c0,0.7,0.3,1.8-0.9,1.9c-1.3,0.1-1-1-1-1.7
		c-0.2-1.9,0.5-3.9-1.3-5.7c-0.8-0.8-0.5-2.7,1.7-2.5C63.7,199.9,64.5,200.1,65,199.4z"/>
	<path class="st1" d="M121.7,206.5c0-0.2,0-0.4,0.1-0.5c2.2-1.3,1.5-3.8,2.6-5.6c0.5-0.8,0.9-1.5,0.8-2.4c-0.2-1.6,0.8-1.6,1.9-1.6
		c0,1.6,0,3.3,0,4.9C127.1,205.7,126.1,206.6,121.7,206.5z"/>
	<path class="st1" d="M248.3,243.3c6.3-0.1,12.6-0.2,18.9-0.2c0.2,1.1-0.3,1.6-1.5,1.6c-5.3,0-10.6,0-15.9,0
		C248.8,244.7,248.2,244.4,248.3,243.3z"/>
	<path class="st1" d="M69.3,208.5c0.2,0.6,0.3,1.1,1.1,1.5c1.7,0.8,1.3,2.7,1.4,4.2c-0.9,0.4-1.9,1.1-2.6-0.4
		c-0.1-0.2-0.5-0.5-0.7-0.5c-1.8,0.1-2.7-0.4-2.6-2.4c0.1-2.2,1.8-2,3.2-2.4C69.2,208.4,69.3,208.5,69.3,208.5z"/>
	<path class="st1" d="M114.9,223.2c0.3-1.3-0.8-3.2,1.6-3.5c0.2,0,0.3-0.7,0.3-1.1c-0.2-2.4,1.8-4.1,1.7-6.5c0-1,1.2-0.5,1.7-0.8
		c0,1.1,0.4,2.4-0.1,3.3c-1,2.1-1.8,4.3-2.5,6.6C117.5,221.9,116.8,223.9,114.9,223.2z"/>
	<path class="st1" d="M127,196.5c-0.1-3.1,1-5.7,3-8c0.6-0.7,0-2.5,1.8-2.2c0,1.5,0,3,0.1,4.5c0.1,1.5-0.1,2.7-2.1,2.4
		c-1.1-0.1-1.3,0.6-1.3,1.5C128.6,195.8,128.5,196.7,127,196.5z"/>
	<path class="st1" d="M279.7,236.5c-0.5,0-1,0-1.4,0c-0.7,0-1.3-0.1-1.3-1c0-0.7,0.5-0.9,1.1-0.9c1.6,0.2,2.4-0.4,2.2-2.1
		c-0.1-1.3,0.9-1.2,1.8-1.2c0.9,0,1.4,0.2,1.6,1.3C284.1,235.8,283.4,236.5,279.7,236.5z"/>
	<path class="st1" d="M238.1,246.5c0-0.2-0.1-0.5,0-0.7c0.2-0.9-0.7-2.5,1-2.4c1.2,0,2.2,1.1,2.4,2.5c0.1,0.7,0,1.4,0,2.1
		c0.1,1.3-0.3,1.9-1.7,1.9c-1.5,0-1.7-0.8-1.7-2C238.1,247.5,238.1,247,238.1,246.5z"/>
	<path class="st1" d="M79.6,247.2c0,2.5-1.5,3.5-4,2.6c-0.3-0.1-0.5-0.3-0.7-0.5c-0.2-0.2,2-4.5,2.2-4.6
		C78.9,244.1,79.6,244.8,79.6,247.2z"/>
	<path class="st1" d="M145.4,199.9c0,3.3,0,6.7,0,10c-1.3,0.1-2-0.3-1.9-1.7c0.1-2.2,0.1-4.4,0-6.6
		C143.5,200.1,144.2,199.8,145.4,199.9z"/>
	<path class="st1" d="M240,223.2c1.2-0.1,1.5,0.6,1.5,1.6c0,3.3,0,6.6,0,9.9c0,0.6,0.3,1.7-0.8,1.6c-0.9,0-0.6-1-0.6-1.5
		C240,230.9,240,227.1,240,223.2C240,223.2,240,223.2,240,223.2z"/>
	<path class="st1" d="M140.2,227.1c0-0.9,0-1.9,0-2.8c0-0.5,0.3-0.9,0.8-0.9c0.7-0.1,1,0.3,1,1c0,2,0,3.9,0,5.9c0,0.6-0.2,1.1-1,1.1
		c-0.7,0-0.9-0.5-0.9-1.1C140.2,229.1,140.2,228.1,140.2,227.1C140.2,227.1,140.2,227.1,140.2,227.1z"/>
	<path class="st1" d="M194.5,244.6c0.3-0.3,0.6-0.6,0.9-1c0.5,1.6,0.6,3.5,3.2,3c0.3-0.1,0.6,0.3,0.6,0.6c0,0.3-0.2,0.6-0.6,0.6
		c-2.2,0-4.5,0-6.7,0c-0.5,0-0.7-0.3-0.6-0.8c0.1-0.6,0.7-0.6,1.2-0.6C194,246.7,194.7,246.2,194.5,244.6z"/>
	<path class="st1" d="M156,246.5c-0.6-0.2-1.7,0.5-2.2-0.7c-0.6-1.6,0.3-2.8,2.1-2.5c1.3,0.2,1.8,1.6,3,2c0.4,0.1,0.2,1.2-0.7,1.3
		C157.6,246.6,156.9,246.5,156,246.5z"/>
	<path class="st1" d="M363.1,216.6c-1.3,0.2-1.9-0.2-1.9-1.6c0.1-1.7,0-3.4,0-5.1c1.4-0.1,2,0.4,1.9,1.9
		C363.1,213.4,363.1,215,363.1,216.6z"/>
	<path class="st1" d="M231.4,249.9c-0.6,0-1.3,0-1.9,0c-0.7,0-1.5,0.1-1.5-1c0-0.9,0.7-0.9,1.4-0.9c1.3,0,2.6,0,3.8,0
		c0.6,0,1.4,0,1.4,0.9c0,1.1-0.8,1-1.5,1C232.6,249.9,232,249.9,231.4,249.9z"/>
	<path class="st1" d="M108.2,236.5c-0.2-1.8-0.3-3.5,2.2-3.9c1.9,0.5,1.1,2,1.1,3c0,1.1-1.1,0.8-1.9,0.9
		C109.1,236.6,108.7,236.5,108.2,236.5z"/>
	<path class="st1" d="M172.7,243.2c2.2,0.1,4.3,0.2,6.5,0.2c0.9,0,1.5,0.3,1.7,1.2c-2.2,0-4.4,0-6.5,0
		C173.2,244.7,172.5,244.4,172.7,243.2z"/>
	<path class="st1" d="M240.1,239.8c-0.2-1.3,0.3-1.8,1.6-1.8c1.1,0,1.8,0.3,1.8,1.6c0,1.3-0.4,1.9-1.8,1.8
		C240.5,241.3,239.8,240.9,240.1,239.8z"/>
	<path class="st1" d="M113.5,248.7c0.1,0.7-0.3,1.3-1.6,1.2c-0.8-0.1-2,0.1-1.7-1c0.3-1,1.2-2,2.3-2.2
		C113.6,246.5,113.4,247.5,113.5,248.7z"/>
	<path class="st1" d="M111.4,231.2c0.4-1.5-0.6-3.4,1.6-4.3c0.5,0.8,0.5,1.6,0.6,2.5C113.7,231.1,112.9,231.5,111.4,231.2z"/>
	<path class="st1" d="M218.9,246.5c0.6,0,1,0,1.4,0c0.5,0,1.2,0,1.2,0.8c0,0.6-0.6,0.6-1.1,0.6c-0.4,0-0.8,0.1-1.2,0
		c-0.9-0.2-2.6,0.6-2.6-0.7C216.5,245.9,218.2,246.9,218.9,246.5z"/>
	<path class="st1" d="M356.4,248c0.4,0,0.8-0.1,1.2,0c0.8,0.1,1.9-0.5,2.1,0.9c0.1,0.9-0.5,1-1.2,1c-1,0-2.2,0.2-2.1-1.4
		C356.4,248.3,356.4,248.1,356.4,248C356.4,248,356.4,248,356.4,248z"/>
	<path class="st1" d="M146,214.1c1.5,1,0.8,2.5,0.9,3.9C144.1,217.3,145.8,215.5,146,214.1z"/>
	<path class="st1" d="M202.9,244.6c-0.6-0.1-1.5,0.2-1.5-0.8c0-0.9,0.9-0.7,1.5-0.7c0.6,0,1.5-0.2,1.5,0.6
		C204.5,245,203.5,244.5,202.9,244.6z"/>
	<path class="st1" d="M62.6,193.2c2.2,0.4,2.4,0.9,1,2.8C62.2,195.5,62.7,194.3,62.6,193.2z"/>
	<path class="st1" d="M208,238c-0.1-1.4,0.9-1.3,1.9-1.3c1,0,1.5,0.3,1.3,1.4C210.2,238,209.1,238,208,238z"/>
	<path class="st1" d="M106.8,239.9c0.3-1.2-1.1-3,1.4-3.3C107.7,237.7,109.3,239.7,106.8,239.9z"/>
	<path class="st1" d="M155.7,234.6c-0.1,0.8,0.3,1.9-1.1,1.8c-0.4,0-0.7-0.3-0.8-0.7C153.8,234.3,154.9,234.7,155.7,234.6
		L155.7,234.6z"/>
	<path class="st1" d="M83.1,241.2c1.7-0.3,2,0.6,1.9,2C83.3,243.4,82.7,242.8,83.1,241.2z"/>
	<path class="st1" d="M170.7,241.5c1.5-0.4,2,0.4,2,1.7C171.3,243.4,170.5,243,170.7,241.5z"/>
	<path class="st1" d="M346.3,237.9c1.4,0,2.2,0.5,1.7,2C346.4,240.1,346,239.2,346.3,237.9z"/>
	<path class="st2" d="M339.4,195.2c0,0.4,0.1,0.8,0.1,1.2c0,3.9,0,7.8-0.1,11.6c0,1.5,0.5,2,2,1.9c0,1.6,0.5,3.3-1.5,4.2
		c-0.6,0.3-0.4,1-0.4,1.5c0,1.1-0.7,1-1.4,1c-0.4-1.1,0.9-2.9-1.1-3.3c-0.8-0.2-2.3-0.5-2.2,0.9c0.1,1.3-1.4,3.5,1.5,3.8
		c-0.2,1.7-1.6,2.4-2.5,3.6c-1.4,1.7-3.5,1-4.8,2.7c-0.8,1-2.9,0.3-4.4,0.4c-3,0-5.9,0-8.9,0c0,0,0,0,0,0c-0.8-1.9-1.5-3.7-4.2-3.4
		c-0.7,0.1-1.4,0-2.1,0c0,0,0,0,0,0c0.1-0.4,0-1,0.3-1.1c1.5-0.9,1.3-1.4,0.1-2.7c-1.8-1.9-3.9-0.5-5.7-1c-0.8-0.8-1.5-1.7-2.3-2.5
		c1.6-1.5,1.2-2.7-0.6-3.7c-1-3.5-0.4-7-0.4-10.5c3,0.1,1.5-2.1,1.9-3.4c0.2-1.2,0.2-2.5,1.4-3.3c0.7,0.1,1.7-0.3,2,0.9
		c0.4,1.4,0.8,1.4,1.5,0.1c0.7-1.4,4.5-1.4,5.2,0c0.7,1.3,1.1,1.4,1.5,0c0.3-0.8,1-1.2,1.2-0.4c0.5,2,1.9,1.4,3,1.4
		c2.3,0.1,4.7,0,7,0c1.4,0,2.9,0.2,3.2-1.8c0.7,0.7,1.1,2.3,1.5,1.7c1.5-2.5,2.4-0.4,3.6,0.1c0.3,0.2,0.8,0,1.2,0
		C336.5,195.2,337.9,195.2,339.4,195.2z"/>
	<path class="st1" d="M339.4,195.2c-1.4,0-2.9,0-4.3,0c-0.4,0-0.9,0.1-1.2,0c-1.2-0.5-2.1-2.6-3.6-0.1c-0.4,0.7-0.8-1-1.5-1.7
		c-0.3,2-1.8,1.8-3.2,1.8c-2.3,0-4.7,0-7,0c-1.2,0-2.6,0.6-3-1.4c-0.2-0.8-1-0.4-1.2,0.4c-0.5,1.4-0.9,1.3-1.5,0
		c-0.7-1.4-4.5-1.4-5.2,0c-0.7,1.3-1.1,1.3-1.5-0.1c-0.3-1.1-1.3-0.7-2-0.9c1.2-1.8,2.5-3.7,4.6-4.7c0.6-0.3,1.3-0.2,1.3-1
		c0.7,0.4,1.3,1.3,2.3,0.8c0.9-0.4,0.4-1.2,0.5-1.9c0.6-1.1,1.6-1.4,2.8-1.4c4.1,0.1,8.2-0.1,12.3,0.1c2,0.1,3.5,1.3,5.2,2.7
		c2,1.7,3.5,3.9,5.7,5.2C339.7,193.8,339.3,194.5,339.4,195.2z"/>
	<path class="st1" d="M341.4,209.9c-1.4,0.2-2-0.4-2-1.9c0.1-3.9,0.1-7.8,0.1-11.6c0.9,0.1,1.9-0.1,1.9,1.4
		C341.4,201.8,341.8,205.9,341.4,209.9z"/>
	<path class="st1" d="M304,216.6c1.9,0.5,3.9-1,5.7,1c1.2,1.3,1.4,1.8-0.1,2.7c-0.2,0.1-0.2,0.7-0.3,1.1c-2,0.2-3.4-0.2-3.5-2.6
		C305.8,217.7,303.6,218.2,304,216.6z"/>
	<path class="st2" d="M302.7,241.2c-0.2,0.6,0.3,1.5-0.6,1.9c-1.2,0.4-1.1-0.7-1.6-1.3c-0.8-1-2.1-0.3-3.2-0.5c0-0.2,0-0.4,0-0.4
		c-2-1.6-1.1-2.7,0.5-3.8c1.8,0.6,2.2,3.4,4.7,3C302.4,240.1,302.6,240.8,302.7,241.2z"/>
	<path class="st1" d="M315.7,224.7c3,0,5.9,0,8.9,0c0,1.2-0.3,1.9-1.8,1.8c-1.8-0.1-3.5-0.2-5.3-0.1
		C316,226.5,315.7,225.8,315.7,224.7z"/>
	<path class="st1" d="M309.3,221.3c0.7,0,1.4,0.1,2.1,0c2.7-0.4,3.4,1.5,4.2,3.4c-2.2,0.5-3.9-0.8-5.7-1.5
		C309,222.8,309.5,222,309.3,221.3z"/>
	<path class="st1" d="M336.2,218c-2.9-0.3-1.5-2.5-1.5-3.8c-0.1-1.4,1.4-1.1,2.2-0.9c2,0.5,0.7,2.2,1.1,3.3
		C337.4,217.1,336.8,217.6,336.2,218z"/>
	<path class="st1" d="M302.6,196.6c-0.3,1.3,1.1,3.5-1.9,3.4C300.9,198.6,299.7,196.5,302.6,196.6z"/>
	<path class="st1" d="M301.1,210.4c1.8,1,2.2,2.2,0.6,3.7C299.7,213.1,301.2,211.6,301.1,210.4z"/>
	<path class="st2" d="M312.7,186.5c0,0.7,0.4,1.5-0.5,1.9c-1,0.5-1.6-0.4-2.3-0.8C310.4,186,311.7,186.7,312.7,186.5z"/>
	<path class="st2" d="M195.9,223.1c-1.6,0.7-2.9,2.2-4.9,1.5c-3.4,0-6.8,0-10.2,0c-0.5,0.2-0.7-1.1-1.6-0.3c-0.8,0.7-1.8,0-2.8-0.4
		c-3.8-1.3-6-4.3-8.4-7c-1.6-1.8-2.7-4.3-2.3-7c0-3.4,0-6.9,0-10.3c0.2-4.6,2.7-7.9,6.1-11c1.6-1.4,3.5-2,5.1-3.2
		c1.4,2.2-0.3,3.3-1.8,4.2c-0.6,0.4-1.2,0.5-1,1.3c0.1,0.7,0.8,0.7,1.3,0.7c1.4-0.1,2.2,0.3,2,1.8c-0.1,0.8,0.1,1.5,1.1,1.5
		c0.8,0,2,0.5,2.2-0.8c0.3-1.3,1.2-1.1,2-1.1c2.6,0,5.2,0,7.7,0c0.9,0,1.4,0.3,2.1,1.1c0.9,1,1.9,2.4,3.7,2.3
		c1.2-0.1,1.5,0.6,1.4,1.6c0,2,0,4,0,5.9c0,0.7-0.2,1.6,0.5,2c1.2,0.8,1,1.9,1,3c0,1-0.1,1.8,1.3,2.4c1.2,0.5,1,2.4,0.3,2.8
		c-1.6,0.8-1.9,2.8-3.3,3.3c-2,0.7-1.6,2-1.6,3.4C195.9,221.7,195.9,222.4,195.9,223.1z M195.9,204.9c0-1.3,0-2.5,0-3.8
		c0-0.5-0.1-1-0.7-1.1c-0.6,0-0.7,0.5-0.7,1c0,2.6,0,5.2,0,7.8c0,0.5,0.1,1,0.8,0.9c0.6-0.1,0.6-0.6,0.6-1.1
		C195.9,207.4,195.9,206.1,195.9,204.9z"/>
	<path class="st1" d="M195.9,223.1c0-0.7,0-1.4,0-2.1c0-1.3-0.3-2.7,1.6-3.4c1.4-0.5,1.7-2.5,3.3-3.3c0.8-0.4,0.9-2.3-0.3-2.8
		c-1.4-0.6-1.3-1.4-1.3-2.4c0-1.1,0.2-2.2-1-3c-0.7-0.4-0.5-1.3-0.5-2c0-2,0-4,0-5.9c0-1-0.2-1.8-1.4-1.6c-1.8,0.2-2.9-1.2-3.7-2.3
		c-0.7-0.8-1.2-1.1-2.1-1.1c-2.6,0-5.2,0-7.7,0c-0.9,0-1.8-0.2-2,1.1c-0.3,1.2-1.4,0.7-2.2,0.8c-1,0-1.2-0.7-1.1-1.5
		c0.2-1.5-0.6-2-2-1.8c-0.6,0.1-1.2,0-1.3-0.7c-0.2-0.8,0.5-0.9,1-1.3c1.5-1,3.2-2,1.8-4.2c1.7-0.9,3.6-0.5,5.4-0.5
		c3.2-0.1,6.4,0.1,9.6,0c2-0.1,3.4,0.8,4,2.5c0.4,1,1.1,0.7,1.7,0.8c1,0.1,1.8,0.3,1.6,1.5c-0.5,0-1,0-1.4,0
		c-0.7,0.1-1.7-0.3-1.9,0.9c-0.1,0.5,0.2,1,0.7,1c0.9,0,2,0.5,2.5-0.7c0.1-0.3,0.1-0.8,0.1-1.2c2.4,0.3,3.6,2.5,2.5,4.7
		c-0.4,0.7-1.1,0.5-1.7,0.6c-0.7,0.2-1,0.6-0.4,1.2c0.8,0.8,2.5,0.1,3-1.2c2.2-0.3,2.8,1.4,3.2,2.9c0.3,1.2,0.1,2.5,0.1,3.7
		c-0.5,0-1.1-0.1-1.2,0.5c-0.3,1.9-0.3,3.8,0,5.6c0.1,0.5,0.8,0.5,1.2,0.5c-0.5,1.9-0.3,4.4-1.5,5.6c-2.2,2.3-2.8,5.9-6.1,7.3
		C197.5,221.8,197.6,223.7,195.9,223.1z"/>
	<path class="st1" d="M165.8,199.8c0,3.4,0,6.9,0,10.3c-1.1,0-2-0.3-1.9-1.7c0.1-2.3,0.1-4.6,0-6.8
		C163.9,200.1,164.7,199.8,165.8,199.8z"/>
	<path class="st1" d="M180.9,224.7c3.4,0,6.8,0,10.2,0c0,1.2-0.4,1.9-1.8,1.8c-2.2-0.1-4.4-0.1-6.5,0
		C181.3,226.5,180.9,225.9,180.9,224.7z"/>
	<path class="st2" d="M206,208.5c-0.5,0-1.1,0.1-1.2-0.5c-0.3-1.9-0.3-3.8,0-5.6c0.1-0.6,0.8-0.5,1.2-0.5
		C206,204,206,206.2,206,208.5z"/>
	<path class="st2" d="M202.7,195.2c-0.5,1.2-2.2,1.9-3,1.2c-0.6-0.5-0.3-1,0.4-1.2c0.6-0.1,1.3,0,1.7-0.6
		C202.1,194.8,202.4,195,202.7,195.2z"/>
	<path class="st1" d="M152.3,183c0.4-1.1-1-3,1.5-3.1C153.2,180.9,154.7,182.9,152.3,183z"/>
	<path class="st1" d="M209.5,173.3c1.5-0.2,2.2,0.3,2,1.9C210,175.3,209.4,174.6,209.5,173.3z"/>
	<path class="st1" d="M195.9,204.9c0,1.3,0,2.5,0,3.8c0,0.5,0,1-0.6,1.1c-0.7,0.1-0.8-0.4-0.8-0.9c0-2.6,0-5.2,0-7.8
		c0-0.5,0.1-1,0.7-1c0.6,0,0.7,0.6,0.7,1.1C195.9,202.4,195.9,203.6,195.9,204.9z"/>
	<path class="st2" d="M199.3,189.9c0,0.4,0.1,0.8-0.1,1.2c-0.5,1.2-1.6,0.7-2.5,0.7c-0.6,0-0.8-0.5-0.7-1c0.2-1.2,1.2-0.8,1.9-0.9
		C198.3,189.9,198.8,189.9,199.3,189.9C199.3,189.9,199.3,189.9,199.3,189.9z"/>
</g>
</svg>
